<svg width="1876" height="669" viewBox="0 0 1876 669" fill="none" xmlns="http://www.w3.org/2000/svg">
<g clip-path="url(#clip0_47_16)">
<path d="M569.685 532.588L341.254 668.571L109.378 532.585C108.612 532.137 108.142 531.316 108.142 530.429V407.23L6.357 342.894C4.80126 341.91 4.80545 339.64 6.36479 338.662L123.36 265.314L341.254 138.171L453.381 70.3407C455.03 69.3432 457.106 69.3821 458.716 70.4407L670.706 209.802C672.238 210.809 672.201 213.067 670.637 214.024L570.907 275.006V530.44C570.907 531.321 570.443 532.137 569.685 532.588Z" fill="#FFCB20"/>
<path d="M341.254 668.571L569.685 532.588C570.443 532.137 570.907 531.321 570.907 530.44V275.006M341.254 668.571V407.23M341.254 668.571L109.378 532.585C108.612 532.136 108.142 531.316 108.142 530.429V407.23M570.907 275.006L670.637 214.024C672.201 213.067 672.238 210.809 670.706 209.802L458.716 70.4407C457.106 69.3821 455.03 69.3432 453.381 70.3407L341.254 138.171M570.907 275.006L341.254 138.171M570.907 275.006L341.254 407.23M341.254 407.23L222.968 480.947C221.296 481.99 219.167 481.952 217.532 480.852L108.142 407.23M341.254 407.23L123.36 265.314M108.142 407.23L6.357 342.894C4.80126 341.91 4.80545 339.64 6.36479 338.662L123.36 265.314M123.36 265.314L341.254 138.171" stroke="black" stroke-width="6"/>
<path fill-rule="evenodd" clip-rule="evenodd" d="M75.4494 118.274C83.1447 112.662 93.9355 114.346 99.5514 122.036L103.18 127.005C109.217 123.879 115.777 121.074 122.639 119.016C135.387 115.192 150.452 113.583 165.266 118.766C174.257 121.912 178.994 131.746 175.846 140.731C172.698 149.717 162.857 154.45 153.866 151.304C148.208 149.325 141.063 149.484 132.557 152.035C124.1 154.572 115.545 159.118 108.167 164.109C102.998 167.605 98.7435 171.091 95.8545 173.796C85.4171 184.078 84.6991 201.719 93.2944 214.883C97.339 221.077 102.868 225.18 109.099 226.686C115.147 228.148 123.855 227.643 135.304 220.934C178.402 195.679 209.621 195.643 230.992 209.471C240.915 215.891 246.966 224.312 250.485 230.799C252.263 234.078 253.475 237.008 254.263 239.197C254.66 240.298 254.955 241.228 255.167 241.943C255.272 242.301 255.357 242.607 255.424 242.855C255.457 242.979 255.485 243.089 255.509 243.184L255.542 243.315L255.556 243.372L255.563 243.398C255.566 243.411 255.569 243.423 238.802 247.472L255.569 243.423C255.753 244.186 255.886 244.961 255.964 245.742C258.468 270.535 249.645 291.353 234.488 306.808L239.45 313.603C245.066 321.293 243.38 332.076 235.685 337.688C227.99 343.3 217.199 341.616 211.583 333.926L206.178 326.524C188.769 334.707 168.462 338.866 147.662 338.927C138.136 338.955 130.39 331.261 130.362 321.741C130.334 312.221 138.034 304.481 147.56 304.452C169.046 304.389 188.072 298.786 201.349 289.738C215.437 280.137 222.877 267.03 221.775 250.794C221.466 249.947 220.944 248.681 220.154 247.226C218.487 244.151 215.946 240.806 212.242 238.41C206.362 234.605 190.194 228.735 152.755 250.673C135.009 261.072 117.196 264.112 100.988 260.194C84.9612 256.321 72.4973 246.119 64.4024 233.722C48.7462 209.745 47.1315 173.127 71.8678 149.017C71.9403 148.946 72.0134 148.876 72.0872 148.807C72.8989 148.043 73.7624 147.257 74.6741 146.453L71.6843 142.359C66.0684 134.669 67.7541 123.886 75.4494 118.274Z" fill="#004ADB"/>
<path fill-rule="evenodd" clip-rule="evenodd" d="M326.717 7.27957C336.128 5.80345 344.955 12.2309 346.432 21.6358L347.386 27.7122C354.186 27.69 361.303 28.1917 368.348 29.4959C381.435 31.9186 395.57 37.3691 406.375 48.7459C412.933 55.6512 412.647 66.5616 405.737 73.115C398.827 79.6684 387.909 79.3832 381.351 72.4779C377.224 68.1325 370.797 65.0105 362.064 63.394C353.382 61.7868 343.695 61.9221 334.849 62.9907C328.653 63.7391 323.274 64.8964 319.467 65.9821C305.481 70.3592 296.773 85.7216 298.396 101.355C299.16 108.712 302.201 114.887 307.053 119.073C311.764 123.136 319.74 126.665 332.991 125.928C382.875 123.154 410.658 137.382 423.34 159.443C429.229 169.686 430.759 179.94 430.921 187.316C431.003 191.046 430.74 194.205 430.44 196.512C430.289 197.672 430.127 198.634 429.987 199.367C429.917 199.734 429.853 200.045 429.799 200.296C429.772 200.421 429.747 200.532 429.725 200.627L429.694 200.759L429.681 200.816L429.674 200.842C429.671 200.855 429.668 200.867 412.904 196.809L429.668 200.867C429.483 201.63 429.246 202.379 428.959 203.11C419.844 226.304 402.475 240.79 381.924 247.612L383.229 255.922C384.706 265.327 378.274 274.148 368.863 275.624C359.452 277.1 350.625 270.672 349.148 261.267L347.726 252.216C328.5 251.541 308.536 245.964 290.008 236.517C281.523 232.19 278.154 221.808 282.483 213.328C286.813 204.848 297.202 201.481 305.688 205.808C324.827 215.567 344.311 219.275 360.259 217.292C377.18 215.188 389.793 206.93 396.24 191.985C396.352 191.091 396.467 189.727 396.431 188.072C396.354 184.576 395.624 180.44 393.427 176.617C389.937 170.546 378.242 157.939 334.908 160.35C314.369 161.492 297.135 156.059 284.511 145.171C272.029 134.404 265.61 119.637 264.081 104.913C261.125 76.4363 276.439 43.1303 309.468 32.9864C309.565 32.9566 309.662 32.9278 309.759 32.8997C310.831 32.5912 311.958 32.2864 313.137 31.9883L312.35 26.9813C310.873 17.5764 317.305 8.75569 326.717 7.27957Z" fill="#004ADB"/>
<path fill-rule="evenodd" clip-rule="evenodd" d="M597.696 64.8701C606.73 67.8917 611.602 77.6596 608.578 86.6873L606.625 92.5201C612.671 95.6302 618.757 99.3513 624.409 103.752C634.909 111.926 644.943 123.269 649.289 138.341C651.927 147.488 646.645 157.041 637.491 159.678C628.337 162.314 618.778 157.036 616.14 147.888C614.48 142.131 610.213 136.402 603.207 130.948C596.242 125.525 587.581 121.186 579.236 118.063C573.392 115.876 568.084 114.427 564.205 113.639C549.773 111.086 534.962 120.714 529.198 135.338C526.485 142.219 526.338 149.1 528.716 155.048C531.025 160.824 536.477 167.627 548.579 173.072C594.136 193.57 612.238 218.987 613.327 244.406C613.832 256.208 610.465 266.013 607.208 272.636C605.562 275.984 603.873 278.667 602.543 280.576C601.875 281.536 601.287 282.316 600.825 282.902C600.594 283.196 600.394 283.442 600.23 283.64C600.148 283.739 600.075 283.825 600.012 283.9L599.924 284.002L599.886 284.047L599.868 284.067C599.859 284.077 599.851 284.087 586.841 272.769L599.851 284.087C599.335 284.679 598.779 285.235 598.188 285.751C579.407 302.144 557.313 307.006 535.927 303.603L533.256 311.58C530.232 320.607 520.457 325.476 511.423 322.455C502.389 319.433 497.517 309.665 500.541 300.638L503.451 291.949C486.696 282.501 471.547 268.361 459.456 251.448C453.918 243.702 455.713 232.936 463.464 227.402C471.216 221.868 481.989 223.661 487.527 231.408C500.017 248.879 515.603 261.138 530.671 266.719C546.661 272.64 561.663 271.115 574.273 260.817C574.785 260.075 575.516 258.917 576.246 257.431C577.79 254.292 579.048 250.286 578.86 245.881C578.56 238.886 573.99 222.314 534.416 204.508C515.658 196.068 502.865 183.313 496.679 167.838C490.562 152.536 491.67 136.475 497.1 122.702C507.601 96.0643 536.545 73.5503 570.537 79.7489C570.637 79.7671 570.737 79.7861 570.836 79.806C571.929 80.0253 573.07 80.2737 574.254 80.5516L575.864 75.7453C578.887 66.7176 588.662 61.8486 597.696 64.8701Z" fill="#004ADB"/>
<path d="M801.388 163.872C807.19 163.872 813.585 164.728 820.574 166.441C827.563 168.153 833.695 170.59 838.97 173.751L829.673 195.091C822.552 192.852 817.212 191.337 813.651 190.546C810.223 189.756 806.069 189.361 801.19 189.361C794.992 189.361 789.19 191.205 783.783 194.893C778.509 198.582 774.289 203.851 771.124 210.7C767.959 217.418 766.377 225.19 766.377 234.016C766.377 242.446 767.894 250.021 770.926 256.739C773.959 263.325 778.113 268.528 783.388 272.348C788.662 276.036 794.596 277.881 801.19 277.881C810.552 277.881 819.717 275.641 828.684 271.162L840.354 294.083C835.343 296.981 829.145 299.22 821.761 300.801C814.508 302.513 807.717 303.369 801.388 303.369C787.41 303.369 775.344 300.406 765.19 294.478C755.168 288.55 747.52 280.383 742.246 269.977C736.971 259.439 734.334 247.518 734.334 234.213C734.334 220.646 737.169 208.527 742.839 197.857C748.509 187.187 756.421 178.889 766.575 172.961C776.729 166.902 788.333 163.872 801.388 163.872Z" fill="black"/>
<path d="M846.699 300.801L898.127 166.441H927.204L978.236 299.22L947.775 302.777L936.896 271.755H888.039L877.556 300.801H846.699ZM896.742 247.254H927.797L911.973 205.563L896.742 247.254Z" fill="black"/>
<path d="M1025.23 166.441V300.801H994.37V166.441H1025.23Z" fill="black"/>
<path d="M1106.58 257.331L1076.32 300.801H1041.7L1088.58 233.423L1044.87 171.973L1075.53 161.896L1107.77 209.12L1135.66 166.441H1171.46L1125.57 233.225L1170.27 300.801H1133.68L1106.58 257.331Z" fill="black"/>
<path d="M1218.68 166.441V300.801H1187.83V166.441H1218.68Z" fill="black"/>
<path d="M1272.35 220.58V300.801H1241.49V166.441H1271.16L1328.12 247.649V166.441H1358.98V300.801H1329.31L1272.35 220.58Z" fill="black"/>
<path d="M1503.33 166.441V300.801H1472.48V246.069H1422.43V300.801H1391.58V166.441L1422.43 165.255V221.568H1472.48V166.441H1503.33Z" fill="black"/>
<path d="M1521.82 300.801L1573.25 166.441H1602.33L1653.36 299.22L1622.9 302.777L1612.02 271.755H1563.16L1552.68 300.801H1521.82ZM1571.86 247.254H1602.92L1587.1 205.563L1571.86 247.254Z" fill="black"/>
<path d="M863.101 448.202C863.101 462.033 860.53 474.086 855.387 484.361C850.244 494.503 842.926 502.341 833.431 507.874C823.937 513.406 812.794 516.172 800.003 516.172H744.224V381.812H800.399C813.849 381.812 825.255 384.644 834.618 390.308C844.112 395.973 851.233 403.81 855.98 413.821C860.727 423.701 863.101 435.161 863.101 448.202ZM831.058 448.202C831.058 435.424 828.42 425.347 823.146 417.971C817.871 410.594 810.157 406.906 800.003 406.906H775.08V491.276H798.618C808.64 491.276 816.552 487.72 822.354 480.606C828.156 473.493 831.058 462.692 831.058 448.202Z" fill="black"/>
<path d="M972.453 492.067L976.211 516.172H879.685V381.812H972.453L976.211 406.116H910.542V436.347H953.267L957.025 460.65H910.542V492.067H972.453Z" fill="black"/>
<path d="M1030.31 449.585C1030.31 436.017 1033.15 423.898 1038.82 413.229C1044.62 402.559 1052.67 394.194 1062.95 388.135C1073.24 382.076 1084.97 378.98 1098.16 378.848C1112.14 378.848 1124.2 381.944 1134.36 388.135C1144.64 394.194 1152.49 402.493 1157.9 413.031C1163.3 423.569 1166 435.293 1166 448.202C1166 461.901 1163.1 474.086 1157.3 484.756C1151.63 495.426 1143.65 503.79 1133.37 509.85C1123.08 515.777 1111.35 518.807 1098.16 518.939C1084.31 518.939 1072.25 515.909 1061.96 509.85C1051.81 503.658 1043.96 495.294 1038.42 484.756C1033.02 474.218 1030.31 462.494 1030.31 449.585ZM1098.56 404.732C1091.96 404.732 1085.9 406.577 1080.36 410.265C1074.95 413.953 1070.6 419.222 1067.3 426.072C1064.01 432.79 1062.36 440.562 1062.36 449.387C1062.36 462.297 1065.52 472.835 1071.85 481.002C1078.31 489.037 1087.02 493.054 1097.96 493.054C1104.69 493.054 1110.75 491.408 1116.16 488.115C1121.7 484.69 1126.05 479.618 1129.21 472.9C1132.38 466.182 1133.96 457.95 1133.96 448.202C1133.96 439.903 1132.51 432.461 1129.61 425.874C1126.71 419.288 1122.55 414.151 1117.15 410.462C1111.87 406.642 1105.68 404.732 1098.56 404.732Z" fill="black"/>
<path d="M1219.41 438.125H1261.15L1264.71 462.428H1219.41V516.172H1188.55V382.01H1270.44L1274 406.116H1219.41V438.125Z" fill="black"/>
<path d="M1386.98 492.067L1390.74 516.172H1294.21V381.812H1386.98L1390.74 406.116H1325.07V436.347H1367.8L1371.55 460.65H1325.07V492.067H1386.98Z" fill="black"/>
<path d="M1410.89 516.172V381.812H1460.53C1476.36 381.812 1489.35 385.5 1499.5 392.877C1509.65 400.122 1514.73 410.989 1514.73 425.479C1514.73 433.383 1512.88 440.364 1509.19 446.424C1505.5 452.483 1500.49 457.291 1494.16 460.848L1525.61 516.172H1490.99L1465.87 469.541H1441.74V516.172H1410.89ZM1482.49 426.072C1482.49 419.486 1480.51 414.612 1476.55 411.45C1472.6 408.289 1466.93 406.708 1459.54 406.708H1441.74V445.04H1459.94C1466.66 445.04 1472.07 443.394 1476.16 440.101C1480.38 436.676 1482.49 432 1482.49 426.072Z" fill="black"/>
<path d="M1529.54 381.812H1641.49L1645.25 406.116H1600.75V516.172H1569.69V406.116H1529.54V381.812Z" fill="black"/>
<path d="M1637.43 516.172L1688.86 381.812H1717.94L1768.97 514.592L1738.51 518.148L1727.63 487.127H1678.77L1668.29 516.172H1637.43ZM1687.48 462.626H1718.53L1702.71 420.935L1687.48 462.626Z" fill="black"/>
<path d="M1820.71 518.741C1814.51 518.741 1807.13 517.621 1798.56 515.382C1790.12 513.143 1783.52 510.574 1778.78 507.676L1787.68 483.57C1791.9 485.81 1797.1 487.917 1803.3 489.893C1809.63 491.737 1815.24 492.659 1820.12 492.659C1826.71 492.659 1831.79 491.54 1835.35 489.3C1838.91 486.929 1840.69 483.834 1840.69 480.014C1840.69 477.511 1839.3 475.206 1836.53 473.098C1833.9 470.99 1829.54 468.158 1823.48 464.602C1822.16 463.943 1820.18 462.823 1817.54 461.243C1808.58 455.842 1801.52 451.363 1796.38 447.807C1791.37 444.25 1786.89 439.771 1782.93 434.371C1779.11 428.97 1777.19 422.911 1777.19 416.193C1777.32 409.079 1779.3 402.756 1783.13 397.224C1787.08 391.56 1792.69 387.147 1799.94 383.986C1807.19 380.692 1815.7 379.046 1825.46 379.046C1832.05 379.046 1838.84 380.034 1845.83 382.01C1852.82 383.854 1858.95 386.357 1864.22 389.518L1854.73 412.043C1848.4 409.409 1843.19 407.564 1839.1 406.511C1835.02 405.457 1830.6 404.93 1825.85 404.93C1820.97 404.93 1816.95 405.984 1813.79 408.091C1810.75 410.067 1809.24 412.834 1809.24 416.39C1809.24 419.288 1810.49 421.857 1812.99 424.096C1815.63 426.204 1819.79 428.772 1825.46 431.802C1827.57 432.724 1829.74 433.91 1831.98 435.359C1841.48 440.891 1848.73 445.436 1853.74 448.992C1858.75 452.417 1863.17 456.83 1866.99 462.231C1870.82 467.5 1872.73 473.559 1872.73 480.409C1872.73 487.785 1870.62 494.372 1866.4 500.168C1862.31 505.964 1856.31 510.508 1848.4 513.801C1840.62 517.094 1831.39 518.741 1820.71 518.741Z" fill="black"/>
</g>
<defs>
<clipPath id="clip0_47_16">
<rect width="1876" height="669" fill="white"/>
</clipPath>
</defs>
</svg>
